<svg width="16" height="16" viewBox="0 0 16 16" fill="none" xmlns="http://www.w3.org/2000/svg">
<g clip-path="url(#clip0)">
<path d="M3.48765 13.1068C3.41167 13.8975 3.67534 14.6877 4.20961 15.2753C4.64724 15.7569 5.23759 16.056 5.86822 16.1539C5.92226 16.1792 5.98884 16.2 6.06676 16.2H10.7334C10.8113 16.2 10.8779 16.1793 10.932 16.1539C11.562 16.056 12.153 15.7569 12.5906 15.2752C13.125 14.6881 13.3879 13.8973 13.3125 13.1069C13.3125 13.1069 13.3125 13.1069 13.3125 13.1069L12.5402 4.99512L12.5402 4.9951C12.4301 3.83953 11.47 2.96665 10.3088 2.96665H9.42018C9.38278 2.76548 9.31856 2.52949 9.20626 2.32352C9.05682 2.04943 8.80336 1.8 8.40066 1.8C7.99796 1.8 7.7445 2.04944 7.59505 2.32354C7.48275 2.52951 7.41854 2.7655 7.38114 2.96668H6.49141C5.33016 2.96668 4.37009 3.83953 4.25999 4.99513L4.25999 4.99514L3.48765 13.1068ZM3.48765 13.1068L3.68673 13.1259L3.48763 13.1069L3.48765 13.1068ZM10.5928 7.49682C10.4541 8.42158 9.77221 9.12508 8.89176 9.32044V9.29168C8.89176 9.02019 8.67152 8.80003 8.40008 8.80003C8.12865 8.80003 7.90841 9.02019 7.90841 9.29168V9.32129C7.02983 9.12707 6.3461 8.42313 6.20735 7.49687L6.20735 7.49686L5.7157 4.21613C5.92926 4.04874 6.19819 3.95 6.49144 3.95H10.3088C10.6018 3.95 10.8709 4.04909 11.085 4.2168L10.5928 7.49682ZM11.863 14.6135L11.8536 14.6238C11.6783 14.8142 11.4629 14.9605 11.2251 15.0603V13.9583C11.2251 13.044 10.481 12.3 9.56676 12.3H7.23341C6.3191 12.3 5.57508 13.044 5.57508 13.9583V15.0606C5.33345 14.9592 5.11484 14.8093 4.93721 14.6142C4.58899 14.2312 4.41732 13.7153 4.46623 13.2003C4.46623 13.2002 4.46623 13.2002 4.46624 13.2002L5.08836 6.66668L5.23485 7.64305C5.44659 9.05434 6.53741 10.1084 7.90838 10.317V11.0416C7.90838 11.3131 8.1286 11.5333 8.40006 11.5333C8.67151 11.5333 8.89173 11.3131 8.89173 11.0416V10.3178C10.2613 10.1106 11.3535 9.05588 11.5653 7.64307C11.5653 7.64306 11.5653 7.64305 11.5653 7.64304L11.7118 6.66662L12.3339 13.2002C12.3339 13.2002 12.3339 13.2003 12.3339 13.2003C12.3828 13.7159 12.2111 14.2312 11.863 14.6135ZM8.31374 2.75166C8.31374 2.75153 8.31472 2.75244 8.31666 2.75475C8.31471 2.75295 8.31373 2.75179 8.31374 2.75166ZM8.40064 2.94463C8.40291 2.95184 8.40515 2.95918 8.40738 2.96665H8.39391C8.39613 2.95918 8.39838 2.95184 8.40064 2.94463ZM8.4846 2.7548C8.48653 2.75251 8.4875 2.75161 8.4875 2.75174C8.48751 2.75187 8.48654 2.75301 8.4846 2.7548ZM10.2418 15.2166H6.55841V13.9583C6.55841 13.5864 6.86144 13.2833 7.23341 13.2833H9.56676C9.93873 13.2833 10.2418 13.5864 10.2418 13.9583V15.2166Z" fill="white" stroke="white" stroke-width="0.4"/>
</g>
<defs>
<clipPath id="clip0">
<rect width="16" height="16" fill="white"/>
</clipPath>
</defs>
</svg>
