<svg width="17" height="17" viewBox="0 0 17 17" fill="none" xmlns="http://www.w3.org/2000/svg">
<path d="M10.2 11.9H9.63337C9.00777 11.9 8.50003 11.3923 8.50003 10.7667V7.93337C8.50003 7.62057 8.24617 7.3667 7.93337 7.3667H7.3667" stroke="white" stroke-width="1.5" stroke-linecap="round" stroke-linejoin="round"/>
<path d="M8.21595 4.53369C8.05955 4.53369 7.93262 4.66062 7.93262 4.81702C7.93262 4.97342 8.05955 5.10036 8.21595 5.10036C8.37235 5.10036 8.49928 4.97342 8.49928 4.81702C8.49928 4.66062 8.37235 4.53369 8.21595 4.53369Z" stroke="white" stroke-width="1.5" stroke-linecap="round" stroke-linejoin="round"/>
<path d="M8.5 1.5C12.3658 1.5 15.5 4.63416 15.5 8.5C15.5 12.3658 12.3658 15.5 8.5 15.5C4.63416 15.5 1.5 12.3658 1.5 8.5C1.5 4.63416 4.63416 1.5 8.5 1.5Z" stroke="white" stroke-width="1.5" stroke-linecap="round" stroke-linejoin="round"/>
</svg>
