<svg width="16" height="16" viewBox="0 0 16 16" fill="none" xmlns="http://www.w3.org/2000/svg">
<path d="M9.59977 11.1998H9.06644C8.47764 11.1998 7.99977 10.7219 7.99977 10.1331V7.46644C7.99977 7.17204 7.76084 6.93311 7.46644 6.93311H6.93311" stroke="white" stroke-linecap="round" stroke-linejoin="round"/>
<path d="M7.73249 4.26709C7.58529 4.26709 7.46582 4.38656 7.46582 4.53376C7.46582 4.68096 7.58529 4.80042 7.73249 4.80042C7.87969 4.80042 7.99915 4.68096 7.99915 4.53376C7.99915 4.38656 7.87969 4.26709 7.73249 4.26709Z" stroke="white" stroke-linecap="round" stroke-linejoin="round"/>
<path d="M8 1C11.8658 1 15 4.13415 15 8C15 11.8658 11.8658 15 8 15C4.13415 15 1 11.8658 1 8C1 4.13415 4.13415 1 8 1Z" stroke="white" stroke-linecap="round" stroke-linejoin="round"/>
</svg>
