<svg width="9" height="9" viewBox="0 0 9 9" fill="none" xmlns="http://www.w3.org/2000/svg">
<path d="M6.75 4.50006C6.75 3.61757 6.23999 2.85505 5.5 2.48755V3.59256L6.7275 4.82005C6.7425 4.71505 6.75 4.60757 6.75 4.50006Z" fill="white"/>
<path d="M7.99999 4.49998C7.99999 4.96997 7.8975 5.41247 7.72999 5.81998L8.48749 6.57748C8.8125 5.95498 9 5.24998 9 4.49998C9 2.35997 7.5025 0.569982 5.5 0.11499V1.14748C6.94499 1.57749 7.99999 2.91497 7.99999 4.49998Z" fill="white"/>
<path d="M4.50009 0.5L3.45508 1.54501L4.50009 2.59002V0.5Z" fill="white"/>
<path d="M0.6375 0L0 0.6375L2.3625 3H0V6H1.99999L4.5 8.50001V5.1375L6.62749 7.26499C6.2925 7.5225 5.91499 7.72999 5.49998 7.85498V8.8875C6.18748 8.73 6.81499 8.415 7.34248 7.98251L8.3625 9L9 8.3625L4.5 3.8625L0.6375 0Z" fill="white"/>
</svg>
